<?xml version="1.0" encoding="utf-8"?>
<!-- Generator: Adobe Illustrator 22.1.0, SVG Export Plug-In . SVG Version: 6.00 Build 0)  -->
<svg version="1.1" id="Layer_1" xmlns="http://www.w3.org/2000/svg" xmlns:xlink="http://www.w3.org/1999/xlink" x="0px" y="0px"
	 viewBox="0 0 559 90" style="enable-background:new 0 0 559 90;" xml:space="preserve">
<style type="text/css">
	.st0{fill:#293436;}
	.st1{fill:#30AEE4;}
</style>
<path class="st0" d="M43.5,6.1c10.4,0,20.2,4,27.5,11.4c0,0,0,0,0,0l3.2-3.2c0,0,0,0,0,0C66,6,55.1,1.5,43.5,1.5C19.5,1.5,0,21,0,45
	c0,0.8,0.1,1.5,0.1,2.3h4.6c0-0.8-0.1-1.5-0.1-2.3C4.6,23.5,22,6.1,43.5,6.1"/>
<path class="st0" d="M82.3,42.7c0,0.8,0.1,1.5,0.1,2.3c0,21.5-17.5,38.9-38.9,38.9c-10.4,0-20.2-4-27.5-11.4l0,0l-3.2,3.2
	c0,0,0,0,0,0C21,84,31.9,88.5,43.5,88.5C67.5,88.5,87,69,87,45c0-0.8-0.1-1.5-0.1-2.3H82.3z"/>
<g>
	<path class="st1" d="M27.2,47.3H12.1V45c0-17.3,14.1-31.4,31.4-31.4c8.4,0,16.3,3.3,22.2,9.2L62.5,26c-5.1-5.1-11.8-7.9-19-7.9
		c-14,0-25.6,10.8-26.8,24.6h10.5V47.3z"/>
	<path class="st1" d="M57.2,42.7v4.6h13C69.1,61,57.5,71.9,43.5,71.9c-7.2,0-13.9-2.8-19-7.9l-3.2,3.2c5.9,5.9,13.8,9.2,22.2,9.2
		c17.3,0,31.4-14.1,31.4-31.4v-2.3H57.2z"/>
</g>
<g>
	<path class="st0" d="M110.8,55.3h3.7c0.2,5.3,3.2,8,7.9,8c5.1,0,7.7-3.2,7.7-7.8c0-9.8-18.7-9.9-18.7-22.1
		c0-5.8,4.4-10.3,10.9-10.3c6.6,0,10.8,4.7,11.1,11.4h-3.7c-0.2-5.3-3.1-7.7-7.2-7.7c-4.6,0-7.3,2.7-7.3,6.7
		c0,9.8,18.7,9.4,18.7,22.1c0,5.7-3.9,11.4-11.4,11.4C115.5,66.9,110.9,62.3,110.8,55.3"/>
	<path class="st0" d="M140.5,53.6V23.8h3.7v29.8c0,6.5,3.2,9.4,7.8,9.4c4.6,0,7.8-2.9,7.8-9.4V23.8h3.7v29.8
		c0,8.6-4.8,13.1-11.5,13.1C145.2,66.7,140.5,62.2,140.5,53.6"/>
	<path class="st0" d="M176.3,46.1h5.9c5.5,0,8.3-3.4,8.3-9.7c0-6-2.8-9.1-8.3-9.1h-5.9V46.1z M181,49.7h-4.7v16.5h-3.7V23.8h9.7
		c7.8,0,12.1,4.5,12.1,12.4c0,7.4-3.5,12.1-9.3,13.2l10.4,16.7h-4.4L181,49.7z"/>
	<polygon class="st0" points="222.6,62.7 222.6,66.2 202.2,66.2 202.2,23.8 221.9,23.8 221.9,27.3 205.9,27.3 205.9,42.9 
		220.9,42.9 220.9,46.4 205.9,46.4 205.9,62.7 	"/>
	<path class="st0" d="M227.3,55.3h3.7c0.2,5.3,3.2,8,7.9,8c5.1,0,7.7-3.2,7.7-7.8c0-9.8-18.7-9.9-18.7-22.1
		c0-5.8,4.4-10.3,10.9-10.3c6.6,0,10.8,4.7,11.1,11.4h-3.7c-0.2-5.3-3.1-7.7-7.2-7.7c-4.6,0-7.3,2.7-7.3,6.7
		c0,9.8,18.7,9.4,18.7,22.1c0,5.7-3.9,11.4-11.4,11.4C232.1,66.9,227.5,62.3,227.3,55.3"/>
	<path class="st0" d="M295.4,23.8L286,66.2h-4.2l-5.1-23c-0.8-3.4-1.8-9.9-2.1-13.3h-0.2c-0.3,3.4-1.3,9.9-2.1,13.3l-5.1,23h-4.2
		l-9.4-42.3h3.9l5.3,26.1c0.6,3.1,1.8,8.9,2.1,10.8h0.2c0.4-1.8,1.3-7.1,2.2-11.4l5.1-24.8h4.1l5.1,24.8c0.8,4.3,1.8,9.6,2.2,11.4
		h0.2c0.2-1.8,1.5-7.7,2.1-10.8l5.3-26.1H295.4z"/>
	<rect x="301.4" y="23.8" class="st0" width="3.7" height="42.3"/>
	<polygon class="st0" points="317,27.3 317,43.5 331.3,43.5 331.3,47 317,47 317,66.2 313.2,66.2 313.2,23.8 332.3,23.8 332.3,27.3 
			"/>
	<polygon class="st0" points="359.4,27.3 350.1,27.3 350.1,66.2 346.4,66.2 346.4,27.3 337.1,27.3 337.1,23.8 359.4,23.8 	"/>
	<g>
		<path class="st0" d="M377.1,53.3V36.8c0-8.9,4.8-13.8,13.1-13.8c8.5,0,13.2,4.8,13.5,13.8h-8.6c-0.2-3.9-1.7-5.4-5-5.4
			c-2.6,0-4.1,1.7-4.1,5.4v16.4c0,3.6,1.5,5.3,4.1,5.3c3.3,0,4.8-1.6,5.1-5.3h8.6c-0.2,8.9-5.1,13.7-13.7,13.7
			C381.9,66.9,377.1,62.2,377.1,53.3"/>
		<path class="st0" d="M422.8,51l-1-4.8c-0.5-3-1.3-8.2-1.7-11.6h-0.2c-0.4,3.4-1.1,8.6-1.7,11.6l-1,4.8H422.8z M424.5,59.2h-8.9
			l-1.4,7h-8.9l10.2-42.3h9.2l10.2,42.3h-8.9L424.5,59.2z"/>
		<path class="st0" d="M455.7,38.3c0-4.1-1.8-6.2-5.3-6.2h-3.6v12.4h3.6C453.9,44.5,455.7,42.3,455.7,38.3 M464.5,38.3
			c0,9-5.2,14.3-14,14.3h-3.7v13.6h-8.6V23.9h12.3C459.3,23.9,464.5,29.2,464.5,38.3"/>
		<rect x="468.8" y="23.9" class="st0" width="8.6" height="42.3"/>
		<polygon class="st0" points="507,32.1 498.7,32.1 498.7,66.2 489.9,66.2 489.9,32.1 481.6,32.1 481.6,23.9 507,23.9 		"/>
		<g>
			<path class="st0" d="M521.2,51l-1-4.8c-0.5-3-1.3-8.2-1.7-11.6h-0.2c-0.4,3.4-1.1,8.6-1.7,11.6l-1,4.8H521.2z M522.9,59.2h-8.9
				l-1.4,7h-8.9l10.2-42.3h9.2l10.2,42.3h-8.9L522.9,59.2z"/>
		</g>
		<polygon class="st0" points="557.8,58.1 557.8,66.2 536.7,66.2 536.7,23.9 545.3,23.9 545.3,58.1 		"/>
	</g>
</g>
<path class="st0" d="M55.7,51.9c-2.4,4.2-7,7.1-12.2,7.1c-7.7,0-14-6.3-14-14c0-7.7,6.3-14,14-14c3.9,0,7.4,1.6,9.9,4.1l3.2-3.2
	c-3.4-3.4-8-5.4-13.1-5.4c-10.2,0-18.6,8.3-18.6,18.6s8.3,18.6,18.6,18.6c7.8,0,14.5-4.9,17.3-11.7H55.7z"/>
</svg>
